<svg xmlns="http://www.w3.org/2000/svg" viewBox="0 0 306.02 40.93"><defs><style>.cls-1{fill:#fbae22;}.cls-2{fill:#fff;}</style></defs><title>Asset 8</title><g id="Layer_2" data-name="Layer 2"><g id="Layer_1-2" data-name="Layer 1"><polygon class="cls-1" points="68.07 40.93 0 40.93 0 26.65 59.04 26.65 68.07 40.93"/><path class="cls-2" d="M58.87,11.06a14.27,14.27,0,0,1-.63,4.15,9.85,9.85,0,0,1-2.05,3.72,10.6,10.6,0,0,1-3.69,2.68,13.2,13.2,0,0,1-5.5,1H35.52a.83.83,0,0,0-.94.93V36.93H28.13V22.32c0-2.08.45-3.57,1.37-4.48a6.06,6.06,0,0,1,4.42-1.37h13.3A5.6,5.6,0,0,0,49.57,16a4.42,4.42,0,0,0,1.59-1.14,5.17,5.17,0,0,0,.91-1.62,6.27,6.27,0,0,0,.29-1.89,5.17,5.17,0,0,0-1.23-3.47,4.78,4.78,0,0,0-3.85-1.46h-30V26.66H10.78V6.45H0V0H47a14.35,14.35,0,0,1,5.36.9,10.51,10.51,0,0,1,3.7,2.41,9.42,9.42,0,0,1,2.13,3.53A13,13,0,0,1,58.87,11.06Z"/><path class="cls-2" d="M103.26,7.51V12H95.77V33.16H91.25V12H83.76V7.51Z"/><path class="cls-2" d="M118,13.09c2.38,0,4.11.54,5.17,1.62a6.16,6.16,0,0,1,1.6,4.54,5.64,5.64,0,0,1-1.56,4.27Q121.61,25,117.93,25h-9.54v1.44a2.83,2.83,0,0,0,.7,2,3.08,3.08,0,0,0,2.38.78h12.27v3.92H111.47a9.19,9.19,0,0,1-3.22-.5,5.82,5.82,0,0,1-2.16-1.38,5.48,5.48,0,0,1-1.24-2.09,8.82,8.82,0,0,1-.38-2.64V19.71a8.89,8.89,0,0,1,.38-2.63A5.41,5.41,0,0,1,106.09,15a5.82,5.82,0,0,1,2.16-1.38,9.19,9.19,0,0,1,3.22-.5Zm-9.57,8.78h9.42a3.26,3.26,0,0,0,2.3-.64,2.35,2.35,0,0,0,.67-1.75,2.47,2.47,0,0,0-.69-1.83,3,3,0,0,0-2.16-.68h-6.46a3,3,0,0,0-2.38.8,2.86,2.86,0,0,0-.7,2Z"/><path class="cls-2" d="M132,13.09l6.65,7.26,6.92-7.26h5l-9.43,10,9.54,10.07h-5.13l-7.07-7.72-7.22,7.72h-5l9.76-10.45-9.12-9.62Z"/><path class="cls-2" d="M164.21,13.09q5.13,0,7.62,2.3a8.4,8.4,0,0,1,2.49,6.48V33.16h-4.07V21.87a4.62,4.62,0,0,0-1.42-3.65c-1-.83-2.49-1.25-4.62-1.25h-6.57c-.33,0-.5.19-.5.57V33.16h-4V16.21a3.53,3.53,0,0,1,.65-2.45,3,3,0,0,1,2.17-.67Z"/><path class="cls-2" d="M190.73,13.09a8.33,8.33,0,0,1,6.35,2.49q2.35,2.49,2.36,7.55t-2.36,7.56a8.39,8.39,0,0,1-6.35,2.47h-4.21a8.37,8.37,0,0,1-6.37-2.47q-2.34-2.48-2.34-7.56t2.34-7.57a8.37,8.37,0,0,1,6.37-2.47ZM186.9,17a4.68,4.68,0,0,0-3.82,1.44c-.8,1-1.2,2.54-1.2,4.72s.4,3.74,1.2,4.69a4.7,4.7,0,0,0,3.82,1.42h3.45a4.72,4.72,0,0,0,3.82-1.42c.8-.95,1.2-2.52,1.2-4.69s-.4-3.75-1.2-4.72A4.69,4.69,0,0,0,190.35,17Z"/><path class="cls-2" d="M217.1,7.51a10.15,10.15,0,0,1,3.73.62,7.22,7.22,0,0,1,2.56,1.68,6.47,6.47,0,0,1,1.49,2.45,9.21,9.21,0,0,1,.47,2.92,10,10,0,0,1-.3,2.42,8.35,8.35,0,0,1-1,2.24,6.8,6.8,0,0,1-1.68,1.84,7.29,7.29,0,0,1-2.5,1.22l6,10.26h-5l-5.85-9.92h-6.69a.57.57,0,0,0-.64.64v9.28h-4.49V23a4.29,4.29,0,0,1,1-3.11,4.21,4.21,0,0,1,3.08-.95h10a4,4,0,0,0,1.63-.31,3,3,0,0,0,1.1-.8,3.34,3.34,0,0,0,.63-1.14,4.25,4.25,0,0,0,.21-1.33A3.55,3.55,0,0,0,220,13a3.37,3.37,0,0,0-2.71-1H203.2V7.51Z"/><path class="cls-2" d="M240.74,13.09a9.13,9.13,0,0,1,3.19.5A5.78,5.78,0,0,1,246.12,15a5.27,5.27,0,0,1,1.23,2.11,8.58,8.58,0,0,1,.38,2.63v9.42a8.94,8.94,0,0,1-.17,1.86,2.48,2.48,0,0,1-.63,1.24,2.72,2.72,0,0,1-1.27.7,7.89,7.89,0,0,1-2.07.23H234.2c-2.38,0-4.09-.55-5.15-1.64A6.18,6.18,0,0,1,227.48,27a7.57,7.57,0,0,1,.36-2.43A4.38,4.38,0,0,1,229,22.8a5.43,5.43,0,0,1,2.09-1.14,11,11,0,0,1,3.15-.4h9.54V19.74a2.86,2.86,0,0,0-.7-2,3,3,0,0,0-2.38-.8h-12V13.09Zm1.94,16.15c.73,0,1.1-.34,1.1-1V24.46h-9.46a3.16,3.16,0,0,0-2.24.62,2.28,2.28,0,0,0-.65,1.73,2.39,2.39,0,0,0,.65,1.77,2.94,2.94,0,0,0,2.16.66Z"/><path class="cls-2" d="M256.05,33.16h-3.83V17.27A4.35,4.35,0,0,1,253.49,14a5,5,0,0,1,3.67-1.24,4.69,4.69,0,0,1,3.26,1,5.78,5.78,0,0,1,1.64,3l3.49,12.2a1.42,1.42,0,0,0,2.74,0l3.46-12.2a5.94,5.94,0,0,1,1.63-2.92,4.67,4.67,0,0,1,3.31-1.07A5,5,0,0,1,280.35,14a4.36,4.36,0,0,1,1.28,3.28V33.16h-3.88V17.46q0-1.17-1.44-1.17a1.32,1.32,0,0,0-1.41,1l-3.65,12.24a6.66,6.66,0,0,1-1.57,3,4.6,4.6,0,0,1-5.49,0,6.77,6.77,0,0,1-1.64-3L258.9,17.27a1.32,1.32,0,0,0-1.4-1c-1,0-1.45.39-1.45,1.17Z"/><path class="cls-2" d="M299,13.09a9.13,9.13,0,0,1,3.19.5A5.78,5.78,0,0,1,304.41,15a5.27,5.27,0,0,1,1.23,2.11,8.58,8.58,0,0,1,.38,2.63v9.42a8.3,8.3,0,0,1-.17,1.86,2.56,2.56,0,0,1-.62,1.24,2.81,2.81,0,0,1-1.28.7,7.89,7.89,0,0,1-2.07.23H292.5c-2.39,0-4.1-.55-5.15-1.64A6.18,6.18,0,0,1,285.77,27a7.57,7.57,0,0,1,.36-2.43,4.38,4.38,0,0,1,1.16-1.81,5.43,5.43,0,0,1,2.09-1.14,11,11,0,0,1,3.15-.4h9.54V19.74a2.86,2.86,0,0,0-.7-2A3,3,0,0,0,299,17H287V13.09ZM301,29.24c.73,0,1.1-.34,1.1-1V24.46h-9.46a3.18,3.18,0,0,0-2.24.62,2.31,2.31,0,0,0-.65,1.73,2.43,2.43,0,0,0,.65,1.77,2.94,2.94,0,0,0,2.16.66Z"/></g></g></svg>